<svg width="55" height="40" viewBox="0 0 55 40" fill="none" xmlns="http://www.w3.org/2000/svg">
<path d="M52.25 0.75H2.75C1.23148 0.75 0 1.98148 0 3.5V36.5C0 38.0185 1.23148 39.25 2.75 39.25H52.25C53.7685 39.25 55 38.0185 55 36.5V3.5C55 1.98148 53.7685 0.75 52.25 0.75ZM15.125 26.1772V27.5625C15.125 27.9423 14.8173 28.25 14.4375 28.25H13.0625C12.6827 28.25 12.375 27.9423 12.375 27.5625V26.1626C11.4048 26.1127 10.4612 25.7741 9.67914 25.1872C9.34398 24.9354 9.3268 24.4335 9.63016 24.1439L10.6399 23.1805C10.878 22.9537 11.232 22.9434 11.5105 23.1178C11.843 23.3258 12.2203 23.4375 12.6122 23.4375H15.0279C15.5865 23.4375 16.042 22.9287 16.042 22.304C16.042 21.7927 15.7317 21.3423 15.2883 21.21L11.4211 20.0498C9.82351 19.5703 8.70719 18.0372 8.70719 16.321C8.70719 14.2138 10.3443 12.502 12.3741 12.4478V11.0625C12.3741 10.6827 12.6818 10.375 13.0616 10.375H14.4366C14.8165 10.375 15.1241 10.6827 15.1241 11.0625V12.4624C16.0944 12.5123 17.038 12.85 17.82 13.4378C18.1552 13.6896 18.1723 14.1915 17.869 14.4811L16.8592 15.4445C16.6212 15.6713 16.2671 15.6816 15.9887 15.5072C15.6561 15.2984 15.2788 15.1875 14.887 15.1875H12.4712C11.9127 15.1875 11.4572 15.6963 11.4572 16.321C11.4572 16.8323 11.7674 17.2827 12.2109 17.415L16.078 18.5752C17.6756 19.0547 18.792 20.5878 18.792 22.304C18.792 24.412 17.1548 26.123 15.125 26.1772ZM35.75 24.8125C35.75 25.1923 35.4423 25.5 35.0625 25.5H25.4375C25.0577 25.5 24.75 25.1923 24.75 24.8125V23.4375C24.75 23.0577 25.0577 22.75 25.4375 22.75H35.0625C35.4423 22.75 35.75 23.0577 35.75 23.4375V24.8125ZM49.5 24.8125C49.5 25.1923 49.1923 25.5 48.8125 25.5H41.9375C41.5577 25.5 41.25 25.1923 41.25 24.8125V23.4375C41.25 23.0577 41.5577 22.75 41.9375 22.75H48.8125C49.1923 22.75 49.5 23.0577 49.5 23.4375V24.8125ZM49.5 16.5625C49.5 16.9423 49.1923 17.25 48.8125 17.25H25.4375C25.0577 17.25 24.75 16.9423 24.75 16.5625V15.1875C24.75 14.8077 25.0577 14.5 25.4375 14.5H48.8125C49.1923 14.5 49.5 14.8077 49.5 15.1875V16.5625Z" fill="#D1AE31"/>
</svg>
