<svg width="834" height="200" viewBox="0 0 834 200" fill="none" xmlns="http://www.w3.org/2000/svg">
<path d="M-179 199C-61.6667 123 341 16.6001 1013 199H-179Z" fill="#757D8E"/>
<g clip-path="url(#clip0_2144_53)">
<path d="M232.67 40.05L218.89 33.44L221.24 21.41L226.15 22.37L224.54 30.6L234.84 35.54L232.67 40.05Z" fill="#F9B117"/>
<path d="M232.67 40.05L218.89 33.44L221.24 21.41L226.15 22.37L224.54 30.6L234.84 35.54L232.67 40.05Z" stroke="#141414" stroke-width="2" stroke-miterlimit="10"/>
<path d="M223.7 24.42C227.141 24.42 229.93 21.6307 229.93 18.19C229.93 14.7493 227.141 11.96 223.7 11.96C220.259 11.96 217.47 14.7493 217.47 18.19C217.47 21.6307 220.259 24.42 223.7 24.42Z" fill="#0E394F"/>
<path d="M223.7 24.42C227.141 24.42 229.93 21.6307 229.93 18.19C229.93 14.7493 227.141 11.96 223.7 11.96C220.259 11.96 217.47 14.7493 217.47 18.19C217.47 21.6307 220.259 24.42 223.7 24.42Z" stroke="#141414" stroke-width="2" stroke-miterlimit="10"/>
<path d="M216.18 52.6C217.028 48.8261 218.857 45.3425 221.481 42.5006C224.105 39.6588 227.432 37.559 231.127 36.413C234.821 35.267 238.752 35.1154 242.524 35.9734C246.296 36.8314 249.775 38.6687 252.61 41.3L264.12 52L303.64 88.54L252.23 104.54L200.83 120.54L212.72 67.9L216.18 52.6Z" fill="#FACA3F"/>
<path d="M265.69 53.29L214.79 69.09L215.57 65.64C220.909 64.6698 226.054 62.8322 230.8 60.2C239.296 55.6636 246.196 48.6307 250.57 40.05C252.011 40.8979 253.353 41.9041 254.57 43.05L265.69 53.29Z" fill="#F99F00"/>
<path d="M512.46 179.64H533.52C536.675 179.648 539.8 179.033 542.717 177.832C545.634 176.631 548.285 174.867 550.52 172.64V172.64C555.021 168.139 561.125 165.611 567.49 165.611C573.855 165.611 579.959 168.139 584.46 172.64L588.96 177.14C591.194 179.367 593.846 181.131 596.763 182.332C599.68 183.533 602.805 184.148 605.96 184.14H638.52" stroke="#141414" stroke-width="2" stroke-miterlimit="10"/>
<path d="M662.68 174.86C657.82 165.55 649.12 158.57 637.89 158.57C631.614 158.579 625.51 160.614 620.484 164.373C615.459 168.132 611.782 173.413 610 179.43C609.724 180.396 609.676 181.413 609.861 182.4C610.046 183.388 610.457 184.319 611.063 185.12C611.669 185.921 612.454 186.57 613.354 187.016C614.254 187.462 615.245 187.693 616.25 187.69H651.96L663.62 186.69" fill="#2C6E9B"/>
<path opacity="0.3" d="M619.11 179.43C618.832 180.395 618.783 181.412 618.966 182.4C619.149 183.387 619.559 184.319 620.165 185.12C620.77 185.921 621.554 186.571 622.454 187.017C623.354 187.463 624.346 187.694 625.35 187.69H616.21C615.205 187.693 614.214 187.462 613.314 187.016C612.414 186.57 611.629 185.921 611.023 185.12C610.417 184.319 610.005 183.388 609.821 182.4C609.636 181.413 609.684 180.396 609.96 179.43C611.744 173.406 615.427 168.12 620.46 164.361C625.494 160.602 631.608 158.57 637.89 158.57C639.424 158.568 640.955 158.688 642.47 158.93C637.039 159.795 631.964 162.18 627.83 165.807C623.696 169.435 620.673 174.157 619.11 179.43Z" fill="#0E3964"/>
<path d="M663.7 183.56C663.742 178.44 662.188 173.433 659.255 169.236C656.321 165.039 652.153 161.86 647.33 160.14C643.621 158.872 639.695 158.365 635.786 158.65C631.877 158.935 628.066 160.006 624.58 161.798C621.095 163.591 618.007 166.068 615.502 169.083C612.997 172.097 611.125 175.586 610 179.34C609.712 180.309 609.655 181.332 609.831 182.327C610.008 183.322 610.415 184.262 611.019 185.073C611.622 185.884 612.407 186.542 613.31 186.996C614.213 187.451 615.209 187.688 616.22 187.69H659.59C660.132 187.69 660.668 187.583 661.169 187.375C661.67 187.168 662.124 186.863 662.507 186.48C662.89 186.096 663.193 185.641 663.399 185.14C663.606 184.639 663.711 184.102 663.71 183.56H663.7Z" stroke="#141414" stroke-width="2" stroke-miterlimit="10"/>
<path d="M221.565 143.095L238.346 137.891L248.228 169.754C248.919 171.983 248.697 174.396 247.609 176.461C246.522 178.526 244.659 180.074 242.429 180.766C240.2 181.457 237.788 181.234 235.723 180.147C233.658 179.06 232.109 177.196 231.418 174.967L221.536 143.104L221.565 143.095Z" fill="#FBD766"/>
<path d="M282.701 123.278L299.511 118.064L309.392 149.927C310.084 152.156 309.861 154.569 308.774 156.634C307.686 158.699 305.823 160.248 303.594 160.939C301.365 161.63 298.952 161.408 296.887 160.32C294.822 159.233 293.274 157.37 292.582 155.141L282.701 123.278Z" fill="#FBD766"/>
<path d="M221.565 143.095L238.346 137.891L248.228 169.754C248.919 171.983 248.697 174.396 247.609 176.461C246.522 178.526 244.659 180.074 242.429 180.766C240.2 181.457 237.788 181.234 235.723 180.147C233.658 179.06 232.109 177.196 231.418 174.967L221.536 143.104L221.565 143.095Z" stroke="#141414" stroke-width="2" stroke-miterlimit="10"/>
<path d="M282.701 123.278L299.511 118.064L309.392 149.927C310.084 152.156 309.861 154.569 308.774 156.634C307.686 158.699 305.823 160.248 303.594 160.939C301.365 161.63 298.952 161.408 296.887 160.32C294.822 159.233 293.274 157.37 292.582 155.141L282.701 123.278V123.278Z" stroke="#141414" stroke-width="2" stroke-miterlimit="10"/>
<path opacity="0.7" d="M227.85 150.87L231.16 161.55" stroke="white" stroke-width="2.8" stroke-linecap="round" stroke-linejoin="round"/>
<path d="M226.679 129.079L287.272 110.288L299.417 149.448C300.117 151.706 300.366 154.079 300.149 156.433C299.931 158.787 299.253 161.075 298.152 163.166C297.05 165.258 295.548 167.112 293.73 168.623C291.912 170.134 289.814 171.272 287.556 171.972L261.291 180.118C256.731 181.532 251.796 181.077 247.572 178.852C243.348 176.628 240.181 172.817 238.767 168.257L226.622 129.097L226.679 129.079Z" fill="#FACA3F"/>
<path d="M292.59 127.497L231.997 146.288L234.301 153.719L294.894 134.928L292.59 127.497Z" fill="#F7B000"/>
<path d="M226.679 129.079L287.272 110.288L299.417 149.448C300.117 151.706 300.366 154.079 300.149 156.433C299.931 158.787 299.253 161.075 298.152 163.166C297.05 165.258 295.548 167.112 293.73 168.623C291.912 170.134 289.814 171.272 287.556 171.972L261.291 180.118C256.731 181.532 251.796 181.077 247.572 178.852C243.348 176.628 240.181 172.817 238.767 168.257L226.622 129.097L226.679 129.079Z" stroke="#141414" stroke-width="2" stroke-miterlimit="10"/>
<path d="M216.18 52.6C217.028 48.8261 218.857 45.3425 221.481 42.5006C224.105 39.6588 227.432 37.559 231.127 36.413C234.821 35.267 238.752 35.1154 242.524 35.9734C246.296 36.8314 249.775 38.6687 252.61 41.3L264.12 52L302.64 88.54L252.23 104.54L201.83 120.54L212.72 67.9L216.18 52.6Z" stroke="#141414" stroke-width="2" stroke-miterlimit="10"/>
<path d="M277.907 47.2412L200.051 71.5712C193.127 73.735 189.268 81.1025 191.432 88.0268L207.908 140.75C210.072 147.674 217.439 151.533 224.363 149.37L302.219 125.04C309.144 122.876 313.003 115.508 310.839 108.584L294.363 55.8608C292.199 48.9365 284.832 45.0773 277.907 47.2412Z" fill="#F9B117"/>
<path opacity="0.5" d="M308.39 104.53L309.63 108.53C310.655 111.837 310.326 115.416 308.713 118.48C307.1 121.545 304.337 123.843 301.03 124.87L223.57 148.87C220.261 149.896 216.681 149.566 213.615 147.954C210.55 146.341 208.249 143.577 207.22 140.27L205.98 136.27C207.007 139.577 209.305 142.34 212.37 143.953C215.434 145.566 219.013 145.895 222.32 144.87L299.79 120.87C301.432 120.368 302.958 119.546 304.28 118.452C305.603 117.357 306.696 116.011 307.495 114.492C308.295 112.973 308.785 111.31 308.939 109.601C309.093 107.891 308.906 106.167 308.39 104.53Z" fill="#E59303"/>
<path d="M278.13 54.4952L203.999 77.6612C199.842 78.9602 197.525 83.3829 198.824 87.5396L214.256 136.922C215.555 141.079 219.978 143.395 224.135 142.096L298.266 118.93C302.423 117.631 304.739 113.209 303.44 109.052L288.008 59.6696C286.709 55.5129 282.287 53.1962 278.13 54.4952Z" fill="#0E394F"/>
<path d="M300.09 102L302.28 109C302.585 109.984 302.693 111.018 302.598 112.043C302.503 113.068 302.207 114.065 301.727 114.976C301.247 115.887 300.592 116.694 299.8 117.352C299.008 118.01 298.094 118.505 297.11 118.81L223.36 141.68C221.372 142.296 219.221 142.097 217.38 141.128C215.538 140.158 214.157 138.497 213.54 136.51L211.36 129.51C211.977 131.495 213.357 133.153 215.197 134.121C217.036 135.089 219.185 135.286 221.17 134.67L294.93 111.79C296.912 111.175 298.568 109.798 299.536 107.963C300.503 106.127 300.703 103.982 300.09 102Z" fill="#062538"/>
<path d="M240.072 93.5938C239.57 91.9744 237.85 91.0687 236.231 91.571C234.611 92.0732 233.706 93.7931 234.208 95.4125L237.967 107.533C238.469 109.152 240.189 110.058 241.808 109.556C243.428 109.054 244.334 107.334 243.831 105.714L240.072 93.5938Z" fill="#4CF58C"/>
<path d="M261.969 86.8045C261.467 85.1851 259.747 84.2794 258.127 84.7817C256.508 85.2839 255.602 87.0038 256.104 88.6232L259.863 100.744C260.365 102.363 262.085 103.269 263.705 102.767C265.324 102.264 266.23 100.544 265.728 98.925L261.969 86.8045Z" fill="#4CF58C"/>
<path d="M217.08 84.9838C218.441 84.5615 219.202 83.116 218.78 81.7551C218.357 80.3942 216.912 79.6334 215.551 80.0557L205.704 83.1113C204.343 83.5336 203.582 84.9792 204.005 86.34C204.427 87.7009 205.873 88.4618 207.233 88.0395L217.08 84.9838Z" fill="#185472"/>
<path d="M223.03 83.01C224.389 83.01 225.49 81.9086 225.49 80.55C225.49 79.1914 224.389 78.09 223.03 78.09C221.671 78.09 220.57 79.1914 220.57 80.55C220.57 81.9086 221.671 83.01 223.03 83.01Z" fill="#185472"/>
<path d="M224.293 65.5595L208.534 70.447C207.579 70.7431 207.045 71.755 207.34 72.7071C207.635 73.6592 208.648 74.1911 209.603 73.895L225.363 69.0075C226.318 68.7114 226.852 67.6995 226.557 66.7474C226.262 65.7953 225.248 65.2634 224.293 65.5595Z" fill="#FFCB6E"/>
<path d="M229.3 67.68C230.338 67.68 231.18 66.8383 231.18 65.8C231.18 64.7617 230.338 63.92 229.3 63.92C228.262 63.92 227.42 64.7617 227.42 65.8C227.42 66.8383 228.262 67.68 229.3 67.68Z" fill="#FFCB6E"/>
<path d="M238.463 45.8223L229.733 48.5297C229.131 48.7162 228.795 49.3548 228.982 49.9562C229.168 50.5575 229.807 50.8939 230.408 50.7074L239.138 48C239.739 47.8135 240.076 47.1748 239.889 46.5735C239.703 45.9721 239.064 45.6358 238.463 45.8223Z" fill="#F7B40D"/>
<path d="M237.378 42.3318L228.648 45.0392C228.047 45.2257 227.71 45.8643 227.897 46.4657C228.083 47.067 228.722 47.4033 229.323 47.2168L238.053 44.5095C238.654 44.323 238.991 43.6843 238.804 43.083C238.618 42.4816 237.979 42.1453 237.378 42.3318Z" fill="#F7B40D"/>
<path d="M274.731 154.63L261.388 158.768C260.465 159.054 259.948 160.032 260.233 160.953C260.519 161.873 261.498 162.388 262.421 162.101L275.765 157.963C276.688 157.677 277.205 156.699 276.919 155.778C276.634 154.858 275.654 154.344 274.731 154.63Z" fill="#F7B40D"/>
<path d="M274.251 149.554L260.84 153.745C259.912 154.035 259.394 155.02 259.684 155.945C259.973 156.87 260.959 157.385 261.887 157.095L275.298 152.904C276.226 152.614 276.744 151.629 276.455 150.704C276.166 149.779 275.179 149.264 274.251 149.554Z" fill="#F7B40D"/>
<path d="M277.907 47.2412L200.051 71.5712C193.127 73.735 189.268 81.1025 191.432 88.0268L207.908 140.75C210.072 147.674 217.439 151.533 224.363 149.37L302.219 125.04C309.144 122.876 313.003 115.508 310.839 108.584L294.363 55.8608C292.199 48.9365 284.832 45.0773 277.907 47.2412Z" stroke="#141414" stroke-width="2.01157" stroke-miterlimit="10"/>
<path opacity="0.2" d="M561 189.43C561 195.23 442.28 199.93 339 199.93C235.72 199.93 152 195.23 152 189.43C152 183.63 235.72 178.93 339 178.93C442.28 178.93 561 183.63 561 189.43Z" fill="#0E394F"/>
<path opacity="0.2" d="M671.19 189.43C671.19 191.78 652.19 193.69 635.66 193.69C619.13 193.69 605.73 191.78 605.73 189.43C605.73 187.08 619.13 185.17 635.66 185.17C652.19 185.17 671.19 187.08 671.19 189.43Z" fill="#0E394F"/>
<path d="M524.76 1H319.35C317.899 1.00194 316.495 1.51532 315.385 2.44989C314.275 3.38446 313.529 4.68042 313.28 6.11L289.44 162.73C289.289 163.614 289.332 164.52 289.567 165.386C289.802 166.251 290.224 167.055 290.802 167.74C291.38 168.426 292.101 168.977 292.914 169.356C293.727 169.734 294.613 169.93 295.51 169.93H508.77C510.194 169.92 511.571 169.417 512.666 168.505C513.76 167.593 514.504 166.329 514.77 164.93L539.44 18.77C539.846 16.6085 539.772 14.3842 539.223 12.2545C538.674 10.1249 537.663 8.14204 536.262 6.44648C534.862 4.75092 533.105 3.38412 531.117 2.4429C529.13 1.50169 526.959 1.00909 524.76 1Z" fill="#0E3964"/>
<path d="M524.76 1H319.35C317.899 1.00194 316.495 1.51532 315.385 2.44989C314.275 3.38446 313.529 4.68042 313.28 6.11L289.44 162.73C289.289 163.614 289.332 164.52 289.567 165.386C289.802 166.251 290.224 167.055 290.802 167.74C291.38 168.426 292.101 168.977 292.914 169.356C293.727 169.734 294.613 169.93 295.51 169.93H508.77C510.194 169.92 511.571 169.417 512.666 168.505C513.76 167.593 514.504 166.329 514.77 164.93L539.44 18.77C539.846 16.6085 539.772 14.3842 539.223 12.2545C538.674 10.1249 537.663 8.14204 536.262 6.44648C534.862 4.75092 533.105 3.38412 531.117 2.4429C529.13 1.50169 526.959 1.00909 524.76 1V1Z" stroke="#141414" stroke-width="2" stroke-miterlimit="10"/>
<path d="M525 1H310.76C308.536 0.998784 306.384 1.78416 304.684 3.21715C302.984 4.65014 301.845 6.63837 301.47 8.83L276.85 169.93H503L530.3 7.39C530.447 6.61091 530.421 5.80895 530.222 5.04132C530.024 4.27368 529.658 3.55926 529.152 2.94899C528.646 2.33873 528.012 1.84765 527.294 1.51076C526.576 1.17387 525.793 0.999475 525 1Z" fill="#2C6E9B"/>
<path d="M525 1H310.76C308.536 0.998784 306.384 1.78416 304.684 3.21715C302.984 4.65014 301.845 6.63837 301.47 8.83L276.85 169.93H503L530.3 7.39C530.447 6.61091 530.42 5.80895 530.222 5.04132C530.024 4.27368 529.658 3.55926 529.152 2.94899C528.646 2.33873 528.012 1.84765 527.294 1.51076C526.576 1.17387 525.793 0.999475 525 1V1Z" stroke="#141414" stroke-width="2" stroke-miterlimit="10"/>
<path d="M519.14 13H312.25L290.42 157.93H495.19L519.14 13Z" fill="#0E394F"/>
<path d="M519.73 13.22L518.6 19.22H311.8L312.83 13.22H519.73Z" fill="#062538"/>
<path d="M318.15 13L296.31 157.93H290.31L312.15 13H318.15Z" fill="#062538"/>
<path d="M341.67 29.07H330.55L329.13 33.28H341.12L341.67 29.07Z" fill="#4CF58C"/>
<path d="M357.67 29.07H345.55L344.13 33.28H356.12L357.67 29.07Z" fill="#4CF58C"/>
<path d="M371.67 29.07H360.55L360.13 33.28H370.12L371.67 29.07Z" fill="#4CF58C"/>
<path d="M381.17 29.07H377.05L375.63 33.28H380.62L381.17 29.07Z" fill="#4CF58C"/>
<path d="M327.17 29.07H323.05L321.63 33.28L326.21 33.42L327.17 29.07Z" fill="#4CF58C"/>
<path d="M339.67 38.07H328.55L327.13 42.28H339.12L339.67 38.07Z" fill="#4CF58C"/>
<path d="M354.67 38.07H343.55L342.13 42.28H354.12L354.67 38.07Z" fill="#4CF58C"/>
<path d="M369.67 38.07H358.55L358.13 42.28H369.12L369.67 38.07Z" fill="#4CF58C"/>
<path d="M378.17 38.07H374.05L372.63 42.28H377.62L378.17 38.07Z" fill="#4CF58C"/>
<path d="M325.17 38.07H321.05L319.63 42.28H324.46L325.17 38.07Z" fill="#4CF58C"/>
<path d="M179.57 168.93H407.85V189.93H187.29C185.493 189.931 183.713 189.578 182.052 188.892C180.391 188.205 178.882 187.197 177.61 185.927C176.339 184.656 175.33 183.148 174.642 181.487C173.954 179.827 173.6 178.047 173.6 176.25V174.9C173.608 173.319 174.239 171.805 175.357 170.687C176.475 169.569 177.989 168.938 179.57 168.93Z" fill="#19517F"/>
<path opacity="0.3" d="M407.85 181.93V189.93H187.28C183.653 189.927 180.175 188.485 177.61 185.92C175.045 183.355 173.603 179.877 173.6 176.25V174.9C173.596 173.999 173.801 173.108 174.2 172.3C175.072 175.088 176.811 177.525 179.163 179.257C181.516 180.988 184.359 181.925 187.28 181.93H407.85Z" fill="#0E3964"/>
<path opacity="0.3" d="M505.86 162.93V168.93H277.03L277.86 162.93H505.86Z" fill="#0E3964"/>
<path d="M242.85 168.93H323.85C323.85 171.847 322.691 174.645 320.628 176.708C318.565 178.771 315.767 179.93 312.85 179.93H253.85C252.405 179.93 250.975 179.645 249.64 179.093C248.306 178.54 247.093 177.73 246.072 176.708C245.05 175.687 244.24 174.474 243.687 173.14C243.135 171.805 242.85 170.375 242.85 168.93Z" fill="#0E3964"/>
<path d="M242.85 168.93H323.85C323.85 171.847 322.691 174.645 320.628 176.708C318.565 178.771 315.767 179.93 312.85 179.93H253.85C252.405 179.93 250.975 179.645 249.64 179.093C248.306 178.54 247.093 177.73 246.072 176.708C245.05 175.687 244.24 174.474 243.687 173.14C243.135 171.805 242.85 170.375 242.85 168.93Z" stroke="#141414" stroke-width="2" stroke-miterlimit="10"/>
<path d="M519.05 13L495.1 157.93H290.37L516.24 13H519.05Z" fill="#062538"/>
<path d="M527.181 68.0356L529.021 56.218C529.171 55.2575 528.513 54.3577 527.553 54.2082C526.592 54.0586 525.692 54.716 525.543 55.6764L523.703 67.494C523.553 68.4545 524.211 69.3543 525.171 69.5039C526.132 69.6534 527.031 68.996 527.181 68.0356Z" fill="#062C4C"/>
<path d="M530.642 45.7874L532.482 33.9698C532.632 33.0094 531.974 32.1095 531.014 31.96C530.053 31.8104 529.154 32.4678 529.004 33.4283L527.164 45.2459C527.014 46.2063 527.672 47.1061 528.632 47.2557C529.593 47.4052 530.493 46.7478 530.642 45.7874Z" fill="#062C4C"/>
<path d="M285.57 172.67H273.61C272.638 172.67 271.85 173.458 271.85 174.43C271.85 175.402 272.638 176.19 273.61 176.19H285.57C286.542 176.19 287.33 175.402 287.33 174.43C287.33 173.458 286.542 172.67 285.57 172.67Z" fill="#141414"/>
<path d="M214.39 168.99H190.08C188.611 168.99 187.42 170.181 187.42 171.65C187.42 173.119 188.611 174.31 190.08 174.31H214.39C215.859 174.31 217.05 173.119 217.05 171.65C217.05 170.181 215.859 168.99 214.39 168.99Z" fill="#2C6E9B"/>
<path d="M221.99 174.31C223.459 174.31 224.65 173.119 224.65 171.65C224.65 170.181 223.459 168.99 221.99 168.99C220.521 168.99 219.33 170.181 219.33 171.65C219.33 173.119 220.521 174.31 221.99 174.31Z" fill="#2C6E9B"/>
<path d="M291.678 89.9722L287.925 113.991C287.698 115.442 288.691 116.803 290.143 117.03C291.594 117.256 292.955 116.263 293.181 114.812L296.934 90.7934C297.161 89.3419 296.168 87.9814 294.717 87.7547C293.265 87.5279 291.905 88.5207 291.678 89.9722Z" fill="#4D9AC4"/>
<path d="M295.47 85.53C296.939 85.53 298.13 84.3391 298.13 82.87C298.13 81.4009 296.939 80.21 295.47 80.21C294.001 80.21 292.81 81.4009 292.81 82.87C292.81 84.3391 294.001 85.53 295.47 85.53Z" fill="#4D9AC4"/>
<path d="M341.39 3.99001H317.08C315.611 3.99001 314.42 5.18093 314.42 6.65001C314.42 8.11908 315.611 9.31001 317.08 9.31001H341.39C342.859 9.31001 344.05 8.11908 344.05 6.65001C344.05 5.18093 342.859 3.99001 341.39 3.99001Z" fill="#4D9AC4"/>
<path d="M348.99 9.31001C350.459 9.31001 351.65 8.11908 351.65 6.65001C351.65 5.18093 350.459 3.99001 348.99 3.99001C347.521 3.99001 346.33 5.18093 346.33 6.65001C346.33 8.11908 347.521 9.31001 348.99 9.31001Z" fill="#4D9AC4"/>
<path d="M397.85 9.93001C399.507 9.93001 400.85 8.58686 400.85 6.93001C400.85 5.27315 399.507 3.93001 397.85 3.93001C396.193 3.93001 394.85 5.27315 394.85 6.93001C394.85 8.58686 396.193 9.93001 397.85 9.93001Z" fill="#F95D5D"/>
<path d="M246.57 163.93H223.57V168.93H246.57V163.93Z" fill="#033156"/>
<path d="M211.85 163.93H188.85V168.93H211.85V163.93Z" fill="#033156"/>
<path d="M281.28 163.93H258.28V168.93H281.28V163.93Z" fill="#033156"/>
<path d="M316 163.93H293V168.93H316V163.93Z" fill="#033156"/>
<path d="M350.71 163.93H327.71V168.93H350.71V163.93Z" fill="#033156"/>
<path d="M385.43 163.93H362.43V168.93H385.43V163.93Z" fill="#033156"/>
<path d="M420.14 163.93H397.14V168.93H420.14V163.93Z" fill="#033156"/>
<path d="M489.85 163.93H466.85V168.93H489.85V163.93Z" fill="#033156"/>
<path d="M454.99 164.08H431.99V169.08H454.99V164.08Z" fill="#033156"/>
<path d="M246.57 163.93H223.57V168.93H246.57V163.93Z" stroke="#141414" stroke-width="2" stroke-miterlimit="10"/>
<path d="M211.85 163.93H188.85V168.93H211.85V163.93Z" stroke="#141414" stroke-width="2" stroke-miterlimit="10"/>
<path d="M281.28 163.93H258.28V168.93H281.28V163.93Z" stroke="#141414" stroke-width="2" stroke-miterlimit="10"/>
<path d="M316 163.93H293V168.93H316V163.93Z" stroke="#141414" stroke-width="2" stroke-miterlimit="10"/>
<path d="M350.71 163.93H327.71V168.93H350.71V163.93Z" stroke="#141414" stroke-width="2" stroke-miterlimit="10"/>
<path d="M385.43 163.93H362.43V168.93H385.43V163.93Z" stroke="#141414" stroke-width="2" stroke-miterlimit="10"/>
<path d="M420.14 163.93H397.14V168.93H420.14V163.93Z" stroke="#141414" stroke-width="2" stroke-miterlimit="10"/>
<path d="M489.85 163.93H466.85V168.93H489.85V163.93Z" stroke="#141414" stroke-width="2" stroke-miterlimit="10"/>
<path d="M454.99 164.08H431.99V169.08H454.99V164.08Z" stroke="#141414" stroke-width="2" stroke-miterlimit="10"/>
<path d="M519.04 13H312.15L290.32 157.93H495.09L519.04 13Z" stroke="#141414" stroke-width="2" stroke-miterlimit="10"/>
<path d="M490.69 29.57H404.69C402.646 29.5667 400.67 30.2981 399.12 31.6309C397.571 32.9636 396.552 34.8088 396.25 36.83L387.9 92.23C387.717 93.4443 387.799 94.6837 388.139 95.8636C388.479 97.0435 389.07 98.136 389.872 99.0664C390.673 99.9969 391.666 100.743 392.782 101.255C393.898 101.766 395.112 102.031 396.34 102.03H481.57C483.594 102.033 485.553 101.317 487.097 100.009C488.641 98.7011 489.67 96.8867 490 94.89L499.16 39.49C499.362 38.2643 499.295 37.0091 498.962 35.8122C498.628 34.6154 498.038 33.5058 497.231 32.561C496.424 31.6162 495.421 30.859 494.291 30.3423C493.161 29.8257 491.932 29.5621 490.69 29.57Z" fill="white"/>
<path d="M499 39.5L489.85 94.89C489.519 96.8841 488.491 98.6961 486.949 100.003C485.407 101.311 483.451 102.029 481.43 102.03H396.21C394.261 102.03 392.37 101.363 390.851 100.141C389.333 98.9187 388.277 97.2142 387.86 95.31L490.32 29.57H490.59C491.828 29.5723 493.05 29.8437 494.173 30.3653C495.295 30.8869 496.291 31.6462 497.091 32.5907C497.891 33.5352 498.476 34.6423 498.805 35.8353C499.135 37.0284 499.201 38.2788 499 39.5Z" fill="#F4F3F2"/>
<path d="M179.57 168.93H407.85V189.93H187.29C185.493 189.931 183.713 189.578 182.052 188.892C180.391 188.205 178.882 187.197 177.61 185.927C176.339 184.656 175.33 183.148 174.642 181.487C173.954 179.827 173.6 178.047 173.6 176.25V174.9C173.608 173.319 174.239 171.805 175.357 170.687C176.475 169.569 177.989 168.938 179.57 168.93Z" stroke="#141414" stroke-width="2" stroke-miterlimit="10"/>
<path d="M513.35 168.93H397.35C391.551 168.93 386.85 173.631 386.85 179.43C386.85 185.229 391.551 189.93 397.35 189.93H513.35C519.149 189.93 523.85 185.229 523.85 179.43C523.85 173.631 519.149 168.93 513.35 168.93Z" fill="#0E3964"/>
<path d="M510.09 177.67H498.13C497.158 177.67 496.37 178.458 496.37 179.43C496.37 180.402 497.158 181.19 498.13 181.19H510.09C511.062 181.19 511.85 180.402 511.85 179.43C511.85 178.458 511.062 177.67 510.09 177.67Z" fill="#141414"/>
<path d="M487.57 177.67H475.61C474.638 177.67 473.85 178.458 473.85 179.43C473.85 180.402 474.638 181.19 475.61 181.19H487.57C488.542 181.19 489.33 180.402 489.33 179.43C489.33 178.458 488.542 177.67 487.57 177.67Z" fill="#141414"/>
<path d="M513.35 168.93H397.35C391.551 168.93 386.85 173.631 386.85 179.43C386.85 185.229 391.551 189.93 397.35 189.93H513.35C519.149 189.93 523.85 185.229 523.85 179.43C523.85 173.631 519.149 168.93 513.35 168.93Z" stroke="#141414" stroke-width="2" stroke-miterlimit="10"/>
<path d="M217.39 59.19L218.26 54.76" stroke="white" stroke-linecap="round" stroke-linejoin="round"/>
<path d="M218.54 53.72C218.893 53.72 219.18 53.4335 219.18 53.08C219.18 52.7265 218.893 52.44 218.54 52.44C218.187 52.44 217.9 52.7265 217.9 53.08C217.9 53.4335 218.187 53.72 218.54 53.72Z" fill="white"/>
<path d="M260 60.05L277.26 54.69C279.237 54.0984 281.368 54.3092 283.191 55.2768C285.014 56.2444 286.382 57.8909 287 59.86L291.2 73.42" stroke="#141414" stroke-width="2" stroke-linecap="round" stroke-linejoin="round"/>
<path d="M241.42 65.8L252.85 62.25" stroke="#141414" stroke-width="2" stroke-linecap="round" stroke-linejoin="round"/>
<path d="M283.35 123.07L223.35 141.68C221.362 142.296 219.211 142.097 217.37 141.128C215.528 140.158 214.147 138.497 213.53 136.51L198.3 87.39C197.684 85.4022 197.883 83.2512 198.852 81.4098C199.822 79.5684 201.483 78.1872 203.47 77.57L235.36 67.68" stroke="#141414" stroke-width="2" stroke-linecap="round" stroke-linejoin="round"/>
<path d="M417.39 76.4H406.27L404.85 80.62H416.84L417.39 76.4Z" fill="#FBD766"/>
<path d="M433.39 76.4H421.27L419.86 80.62H431.84L433.39 76.4Z" fill="#FBD766"/>
<path d="M447.39 76.4H436.27L435.86 80.62H445.84L447.39 76.4Z" fill="#FBD766"/>
<path d="M456.89 76.4H452.77L451.36 80.62H456.34L456.89 76.4Z" fill="#FBD766"/>
<path d="M402.89 76.4H398.77L397.35 80.62L401.93 80.75L402.89 76.4Z" fill="#FBD766"/>
<path d="M415.39 85.4H404.27L402.85 89.62H414.84L415.39 85.4Z" fill="#FBD766"/>
<path d="M430.39 85.4H419.27L417.86 89.62H429.84L430.39 85.4Z" fill="#FBD766"/>
<path d="M445.39 85.4H434.27L433.86 89.62H444.84L445.39 85.4Z" fill="#FBD766"/>
<path d="M453.89 85.4H449.77L448.36 89.62H453.34L453.89 85.4Z" fill="#FBD766"/>
<path d="M400.89 85.4H396.77L395.35 89.62H400.18L400.89 85.4Z" fill="#FBD766"/>
<path d="M490.69 29.57H404.69C402.646 29.5667 400.67 30.2981 399.12 31.6309C397.571 32.9636 396.552 34.8088 396.25 36.83L387.9 92.23C387.717 93.4443 387.799 94.6837 388.139 95.8636C388.479 97.0435 389.07 98.136 389.872 99.0664C390.673 99.9969 391.666 100.743 392.782 101.255C393.898 101.766 395.112 102.031 396.34 102.03H481.57C483.594 102.033 485.553 101.317 487.097 100.009C488.641 98.7011 489.67 96.8867 490 94.89L499.16 39.49C499.362 38.2643 499.295 37.0091 498.962 35.8122C498.628 34.6154 498.038 33.5058 497.231 32.561C496.424 31.6162 495.421 30.859 494.291 30.3423C493.161 29.8257 491.932 29.5621 490.69 29.57V29.57Z" stroke="#141414" stroke-width="1.3" stroke-miterlimit="10"/>
</g>
<defs>
<clipPath id="clip0_2144_53">
<rect width="519.19" height="199.93" fill="white" transform="translate(152)"/>
</clipPath>
</defs>
</svg>
