<svg width="172" height="44" viewBox="0 0 172 44" fill="none" xmlns="http://www.w3.org/2000/svg">
<path d="M7.68 30.24C6.608 30.24 5.56 30.12 4.536 29.88C3.528 29.64 2.648 29.28 1.896 28.8C1.528 28.56 1.304 28.264 1.224 27.912C1.144 27.56 1.168 27.232 1.296 26.928C1.44 26.608 1.656 26.392 1.944 26.28C2.248 26.152 2.592 26.208 2.976 26.448C3.68 26.864 4.424 27.168 5.208 27.36C5.992 27.552 6.816 27.648 7.68 27.648C8.944 27.648 9.864 27.44 10.44 27.024C11.016 26.592 11.304 26.04 11.304 25.368C11.304 24.808 11.096 24.368 10.68 24.048C10.28 23.728 9.584 23.464 8.592 23.256L5.952 22.704C2.944 22.064 1.44 20.52 1.44 18.072C1.44 17.016 1.72 16.096 2.28 15.312C2.84 14.528 3.616 13.92 4.608 13.488C5.6 13.056 6.744 12.84 8.04 12.84C9 12.84 9.912 12.96 10.776 13.2C11.64 13.44 12.416 13.792 13.104 14.256C13.424 14.48 13.616 14.76 13.68 15.096C13.744 15.416 13.704 15.72 13.56 16.008C13.416 16.28 13.184 16.472 12.864 16.584C12.56 16.68 12.2 16.608 11.784 16.368C11.192 16.032 10.592 15.792 9.984 15.648C9.376 15.504 8.72 15.432 8.016 15.432C6.912 15.432 6.048 15.664 5.424 16.128C4.8 16.592 4.488 17.2 4.488 17.952C4.488 18.528 4.68 18.992 5.064 19.344C5.448 19.68 6.104 19.944 7.032 20.136L9.648 20.688C11.232 21.024 12.408 21.552 13.176 22.272C13.96 22.992 14.352 23.952 14.352 25.152C14.352 26.16 14.08 27.048 13.536 27.816C12.992 28.584 12.216 29.184 11.208 29.616C10.216 30.032 9.04 30.24 7.68 30.24ZM22.0526 30.24C20.8366 30.24 19.7806 29.992 18.8846 29.496C17.9886 29 17.2926 28.296 16.7966 27.384C16.3006 26.456 16.0526 25.368 16.0526 24.12C16.0526 22.872 16.3006 21.792 16.7966 20.88C17.2926 19.968 17.9886 19.264 18.8846 18.768C19.7806 18.272 20.8366 18.024 22.0526 18.024C23.2686 18.024 24.3246 18.272 25.2206 18.768C26.1166 19.264 26.8126 19.968 27.3086 20.88C27.8046 21.792 28.0526 22.872 28.0526 24.12C28.0526 25.368 27.8046 26.456 27.3086 27.384C26.8126 28.296 26.1166 29 25.2206 29.496C24.3246 29.992 23.2686 30.24 22.0526 30.24ZM22.0526 27.96C22.9486 27.96 23.6686 27.64 24.2126 27C24.7566 26.344 25.0286 25.384 25.0286 24.12C25.0286 22.84 24.7566 21.888 24.2126 21.264C23.6686 20.624 22.9486 20.304 22.0526 20.304C21.1566 20.304 20.4366 20.624 19.8926 21.264C19.3486 21.888 19.0766 22.84 19.0766 24.12C19.0766 25.384 19.3486 26.344 19.8926 27C20.4366 27.64 21.1566 27.96 22.0526 27.96ZM32.0648 30.192C31.0728 30.192 30.5768 29.68 30.5768 28.656V19.584C30.5768 18.576 31.0648 18.072 32.0408 18.072C33.0168 18.072 33.5048 18.576 33.5048 19.584V20.064C33.8568 19.424 34.3448 18.928 34.9688 18.576C35.5928 18.208 36.3128 18.024 37.1288 18.024C38.8888 18.024 40.0408 18.792 40.5848 20.328C40.9528 19.608 41.4808 19.048 42.1688 18.648C42.8568 18.232 43.6408 18.024 44.5208 18.024C47.1608 18.024 48.4808 19.632 48.4808 22.848V28.656C48.4808 29.68 47.9768 30.192 46.9688 30.192C45.9768 30.192 45.4808 29.68 45.4808 28.656V22.968C45.4808 22.072 45.3288 21.416 45.0248 21C44.7368 20.584 44.2408 20.376 43.5368 20.376C42.7528 20.376 42.1368 20.656 41.6888 21.216C41.2408 21.76 41.0168 22.52 41.0168 23.496V28.656C41.0168 29.68 40.5208 30.192 39.5288 30.192C38.5208 30.192 38.0168 29.68 38.0168 28.656V22.968C38.0168 22.072 37.8648 21.416 37.5608 21C37.2728 20.584 36.7848 20.376 36.0968 20.376C35.3128 20.376 34.6968 20.656 34.2488 21.216C33.8008 21.76 33.5768 22.52 33.5768 23.496V28.656C33.5768 29.68 33.0728 30.192 32.0648 30.192ZM57.3596 30.24C56.0316 30.24 54.8876 29.992 53.9276 29.496C52.9676 29 52.2236 28.296 51.6956 27.384C51.1836 26.472 50.9276 25.392 50.9276 24.144C50.9276 22.928 51.1756 21.864 51.6716 20.952C52.1836 20.04 52.8796 19.328 53.7596 18.816C54.6556 18.288 55.6716 18.024 56.8076 18.024C58.4716 18.024 59.7836 18.552 60.7436 19.608C61.7196 20.664 62.2076 22.104 62.2076 23.928C62.2076 24.52 61.8236 24.816 61.0556 24.816H53.8076C54.0316 26.912 55.2316 27.96 57.4076 27.96C57.8236 27.96 58.2876 27.912 58.7996 27.816C59.3276 27.704 59.8236 27.52 60.2876 27.264C60.7036 27.024 61.0556 26.952 61.3436 27.048C61.6316 27.128 61.8316 27.296 61.9436 27.552C62.0716 27.808 62.0876 28.096 61.9916 28.416C61.9116 28.72 61.6876 28.984 61.3196 29.208C60.7596 29.56 60.1116 29.824 59.3756 30C58.6556 30.16 57.9836 30.24 57.3596 30.24ZM56.9276 20.064C56.0476 20.064 55.3356 20.336 54.7916 20.88C54.2476 21.424 53.9196 22.16 53.8076 23.088H59.7116C59.6476 22.112 59.3756 21.368 58.8956 20.856C58.4316 20.328 57.7756 20.064 56.9276 20.064Z" fill="#00C2FF"/>
<path d="M74.22 30.24C72.46 30.24 70.948 29.888 69.684 29.184C68.436 28.464 67.476 27.456 66.804 26.16C66.132 24.848 65.796 23.304 65.796 21.528C65.796 19.752 66.132 18.216 66.804 16.92C67.476 15.624 68.436 14.624 69.684 13.92C70.948 13.2 72.46 12.84 74.22 12.84C75.1 12.84 75.964 12.952 76.812 13.176C77.66 13.4 78.404 13.72 79.044 14.136C79.46 14.408 79.708 14.736 79.788 15.12C79.868 15.488 79.82 15.832 79.644 16.152C79.468 16.456 79.204 16.664 78.852 16.776C78.5 16.872 78.108 16.776 77.676 16.488C77.18 16.168 76.644 15.936 76.068 15.792C75.492 15.648 74.908 15.576 74.316 15.576C72.604 15.576 71.3 16.096 70.404 17.136C69.508 18.16 69.06 19.624 69.06 21.528C69.06 23.432 69.508 24.904 70.404 25.944C71.3 26.984 72.604 27.504 74.316 27.504C74.924 27.504 75.524 27.432 76.116 27.288C76.708 27.128 77.268 26.888 77.796 26.568C78.228 26.296 78.612 26.208 78.948 26.304C79.284 26.4 79.532 26.6 79.692 26.904C79.868 27.192 79.924 27.512 79.86 27.864C79.796 28.216 79.58 28.528 79.212 28.8C78.572 29.264 77.804 29.624 76.908 29.88C76.028 30.12 75.132 30.24 74.22 30.24ZM86.8808 30.24C85.6648 30.24 84.6088 29.992 83.7128 29.496C82.8168 29 82.1208 28.296 81.6248 27.384C81.1288 26.456 80.8808 25.368 80.8808 24.12C80.8808 22.872 81.1288 21.792 81.6248 20.88C82.1208 19.968 82.8168 19.264 83.7128 18.768C84.6088 18.272 85.6648 18.024 86.8808 18.024C88.0968 18.024 89.1528 18.272 90.0488 18.768C90.9448 19.264 91.6408 19.968 92.1368 20.88C92.6328 21.792 92.8808 22.872 92.8808 24.12C92.8808 25.368 92.6328 26.456 92.1368 27.384C91.6408 28.296 90.9448 29 90.0488 29.496C89.1528 29.992 88.0968 30.24 86.8808 30.24ZM86.8808 27.96C87.7768 27.96 88.4968 27.64 89.0408 27C89.5848 26.344 89.8568 25.384 89.8568 24.12C89.8568 22.84 89.5848 21.888 89.0408 21.264C88.4968 20.624 87.7768 20.304 86.8808 20.304C85.9848 20.304 85.2648 20.624 84.7208 21.264C84.1768 21.888 83.9048 22.84 83.9048 24.12C83.9048 25.384 84.1768 26.344 84.7208 27C85.2648 27.64 85.9848 27.96 86.8808 27.96ZM96.8929 30.192C95.9009 30.192 95.4049 29.68 95.4049 28.656V19.584C95.4049 18.576 95.8929 18.072 96.8689 18.072C97.8449 18.072 98.3329 18.576 98.3329 19.584V20.064C98.6849 19.424 99.1729 18.928 99.7969 18.576C100.421 18.208 101.141 18.024 101.957 18.024C103.717 18.024 104.869 18.792 105.413 20.328C105.781 19.608 106.309 19.048 106.997 18.648C107.685 18.232 108.469 18.024 109.349 18.024C111.989 18.024 113.309 19.632 113.309 22.848V28.656C113.309 29.68 112.805 30.192 111.797 30.192C110.805 30.192 110.309 29.68 110.309 28.656V22.968C110.309 22.072 110.157 21.416 109.853 21C109.565 20.584 109.069 20.376 108.365 20.376C107.581 20.376 106.965 20.656 106.517 21.216C106.069 21.76 105.845 22.52 105.845 23.496V28.656C105.845 29.68 105.349 30.192 104.357 30.192C103.349 30.192 102.845 29.68 102.845 28.656V22.968C102.845 22.072 102.693 21.416 102.389 21C102.101 20.584 101.613 20.376 100.925 20.376C100.141 20.376 99.5249 20.656 99.0769 21.216C98.6289 21.76 98.4049 22.52 98.4049 23.496V28.656C98.4049 29.68 97.9009 30.192 96.8929 30.192ZM117.892 34.512C116.9 34.512 116.404 34.008 116.404 33V19.584C116.404 18.576 116.892 18.072 117.868 18.072C118.86 18.072 119.356 18.576 119.356 19.584V20.088C119.692 19.464 120.196 18.968 120.868 18.6C121.54 18.216 122.308 18.024 123.172 18.024C124.196 18.024 125.092 18.272 125.86 18.768C126.644 19.264 127.252 19.968 127.684 20.88C128.116 21.776 128.332 22.856 128.332 24.12C128.332 25.368 128.116 26.456 127.684 27.384C127.252 28.296 126.652 29 125.884 29.496C125.116 29.992 124.212 30.24 123.172 30.24C122.34 30.24 121.588 30.064 120.916 29.712C120.26 29.344 119.756 28.856 119.404 28.248V33C119.404 34.008 118.9 34.512 117.892 34.512ZM122.332 27.96C123.228 27.96 123.948 27.64 124.492 27C125.036 26.344 125.308 25.384 125.308 24.12C125.308 22.84 125.036 21.888 124.492 21.264C123.948 20.624 123.228 20.304 122.332 20.304C121.436 20.304 120.716 20.624 120.172 21.264C119.628 21.888 119.356 22.84 119.356 24.12C119.356 25.384 119.628 26.344 120.172 27C120.716 27.64 121.436 27.96 122.332 27.96ZM134.658 30.24C133.81 30.24 133.05 30.08 132.378 29.76C131.722 29.424 131.202 28.976 130.818 28.416C130.45 27.856 130.266 27.224 130.266 26.52C130.266 25.656 130.49 24.976 130.938 24.48C131.386 23.968 132.114 23.6 133.122 23.376C134.13 23.152 135.482 23.04 137.178 23.04H138.018V22.536C138.018 21.736 137.842 21.16 137.49 20.808C137.138 20.456 136.546 20.28 135.714 20.28C135.25 20.28 134.746 20.336 134.202 20.448C133.674 20.56 133.114 20.752 132.522 21.024C132.138 21.2 131.818 21.224 131.562 21.096C131.306 20.952 131.13 20.736 131.034 20.448C130.954 20.144 130.97 19.84 131.082 19.536C131.21 19.232 131.458 19.008 131.826 18.864C132.562 18.56 133.266 18.344 133.938 18.216C134.626 18.088 135.25 18.024 135.81 18.024C137.522 18.024 138.794 18.424 139.626 19.224C140.458 20.008 140.874 21.232 140.874 22.896V28.656C140.874 29.68 140.41 30.192 139.482 30.192C138.538 30.192 138.066 29.68 138.066 28.656V28.128C137.794 28.784 137.362 29.304 136.77 29.688C136.178 30.056 135.474 30.24 134.658 30.24ZM135.282 28.176C136.066 28.176 136.714 27.904 137.226 27.36C137.754 26.816 138.018 26.128 138.018 25.296V24.768H137.202C135.698 24.768 134.65 24.888 134.058 25.128C133.482 25.352 133.194 25.768 133.194 26.376C133.194 26.904 133.378 27.336 133.746 27.672C134.114 28.008 134.626 28.176 135.282 28.176ZM145.407 30.192C144.415 30.192 143.919 29.68 143.919 28.656V19.584C143.919 18.576 144.407 18.072 145.383 18.072C146.359 18.072 146.847 18.576 146.847 19.584V20.088C147.247 19.416 147.783 18.904 148.455 18.552C149.143 18.2 149.911 18.024 150.759 18.024C153.527 18.024 154.911 19.632 154.911 22.848V28.656C154.911 29.68 154.415 30.192 153.423 30.192C152.415 30.192 151.911 29.68 151.911 28.656V22.992C151.911 22.08 151.735 21.416 151.383 21C151.047 20.584 150.519 20.376 149.799 20.376C148.919 20.376 148.215 20.656 147.687 21.216C147.175 21.76 146.919 22.488 146.919 23.4V28.656C146.919 29.68 146.415 30.192 145.407 30.192ZM160.817 34.512C160.273 34.512 159.897 34.312 159.689 33.912C159.481 33.512 159.489 33.056 159.713 32.544L161.081 29.52L156.977 20.064C156.753 19.536 156.753 19.072 156.977 18.672C157.201 18.272 157.641 18.072 158.297 18.072C158.665 18.072 158.961 18.16 159.185 18.336C159.409 18.496 159.609 18.808 159.785 19.272L162.665 26.472L165.617 19.248C165.793 18.8 166.001 18.496 166.241 18.336C166.481 18.16 166.801 18.072 167.201 18.072C167.713 18.072 168.073 18.272 168.281 18.672C168.489 19.072 168.481 19.528 168.257 20.04L162.425 33.36C162.217 33.808 161.993 34.112 161.753 34.272C161.513 34.432 161.201 34.512 160.817 34.512Z" fill="#0075FF"/>
</svg>
